<?xml version="1.0" encoding="UTF-8" standalone="no"?><!DOCTYPE svg PUBLIC "-//W3C//DTD SVG 1.1//EN" "http://www.w3.org/Graphics/SVG/1.1/DTD/svg11.dtd"><svg width="100%" height="100%" viewBox="0 0 100 100" version="1.1" xmlns="http://www.w3.org/2000/svg" xmlns:xlink="http://www.w3.org/1999/xlink" xml:space="preserve" xmlns:serif="http://www.serif.com/" style="fill-rule:evenodd;clip-rule:evenodd;stroke-linecap:round;stroke-linejoin:round;stroke-miterlimit:1.5;"><path d="M100,15l0,70c0,8.279 -6.721,15 -15,15l-70,0c-8.279,0 -15,-6.721 -15,-15l-0,-70c-0,-8.279 6.721,-15 15,-15l70,-0c8.279,-0 15,6.721 15,15Z" style="fill:#355ef6;"/><path d="M16.654,20.235l13.1,-5.151c0.766,-0.187 1.06,-0.254 1.383,0.262l0.172,29.935c1.508,-1.098 2.826,-2.516 4.326,-3.648c1.796,-1.356 3.062,-2.405 5.344,-3.143c2.589,-0.767 5.146,-0.841 7.696,-0.29c3.4,0.734 5.938,2.623 8.142,4.778c2.255,2.205 4.121,4.057 5.204,7.936c0.748,2.359 1.214,5.002 1.089,8.235c-0.189,3.485 -0.991,6.97 -2.614,10.455c-1.313,2.703 -3.25,5.264 -5.749,7.696c-2.314,2.314 -5.384,4.017 -9.353,4.937c-3.118,0.456 -6.126,0.64 -8.757,0.283c-4.711,-0.588 -9.231,-2.368 -12.902,-5.232l-0.33,-50.677c-0.076,-1.258 0.218,-2.531 -0.858,-3.966c-0.661,-0.688 -1.405,-1.178 -2.199,-1.55c-1.107,-0.456 -2.255,-0.125 -3.415,0.444l-0.279,-1.304Zm15.045,28.592l-0.39,26.077c1.613,2.212 3.909,3.824 7.188,4.574c1.86,0.487 3.515,0.631 5.009,0.509c2.424,-0.571 4.15,-1.731 5.518,-3.195c2.197,-2.762 3.741,-5.547 4.72,-8.35c0.825,-2.984 1.193,-5.803 1.003,-8.422c-0.459,-4.753 -1.793,-8.311 -3.472,-11.399c-2.091,-2.795 -4.845,-4.305 -8.277,-4.502c-2.581,-0.121 -4.852,0.449 -7.608,1.289c-2.511,1.163 -3.145,2.386 -3.691,3.419Z" style="fill:#fff;stroke:#fff;stroke-width:1px;"/><path d="M76.619,32.905l3.407,-0.019l-0.108,49.785l-3.24,0.037l-0.059,-49.803Z" style="fill:#fff;fill-opacity:0.47;stroke:#fff;stroke-opacity:0;stroke-width:1px;"/></svg>