<?xml version="1.0" encoding="UTF-8" standalone="no"?><!DOCTYPE svg PUBLIC "-//W3C//DTD SVG 1.1//EN" "http://www.w3.org/Graphics/SVG/1.1/DTD/svg11.dtd"><svg width="100%" height="100%" viewBox="0 0 200 200" version="1.1" xmlns="http://www.w3.org/2000/svg" xmlns:xlink="http://www.w3.org/1999/xlink" xml:space="preserve" xmlns:serif="http://www.serif.com/" style="fill-rule:evenodd;clip-rule:evenodd;stroke-linejoin:round;stroke-miterlimit:2;"><path d="M66.219,26.965l130.765,73.038l-128.396,73.032l31.226,-55.862l33.369,-17.704l-35.195,-19.942l-31.769,-52.562Z" fill="white"/><path d="M66.219,26.965l130.765,73.038l-128.396,73.032l31.226,-55.862l33.369,-17.704l-35.195,-19.942l-31.769,-52.562Zm11.236,10.858l23.415,38.74l34.285,19.426c1.27,0.72 2.048,2.075 2.027,3.535c-0.02,1.461 -0.834,2.794 -2.125,3.478l-32.327,17.152l-23.651,42.312c-0,-0 109.759,-62.432 109.759,-62.432l-111.383,-62.211Z" fill="white"/><path d="M76.73,81.891l-53.413,-4.355l-20.301,26.66l52.018,17.345l69.426,-21.541l-47.73,-18.109Z" fill="white"/><path d="M76.73,81.891l47.73,18.109l-69.426,21.541l-52.018,-17.345l20.301,-26.66l53.413,4.355Zm-0.89,3.941l-50.667,-4.132l-15.587,20.47l45.492,15.169l57.106,-17.718l-36.344,-13.789Z" fill="white"/><path d="M96.225,116.677l-8.036,-1.586l-19.565,6.45l12.781,18.68l14.82,-23.544Z" fill="white"/><path d="M96.225,116.677l-14.82,23.544l-12.781,-18.68l19.565,-6.45l8.036,1.586Zm-6.487,2.797l-1.294,-0.255l-13.514,4.455l6.335,9.26l8.473,-13.46Z" fill="white"/><path d="M93.92,83.01l-18.028,-26.48l-20.357,18.629l22.147,2.377l16.238,5.474Z" fill="white"/><path d="M93.92,83.01l-16.238,-5.474l-22.147,-2.377l20.357,-18.629l18.028,26.48Zm-10.011,-7.596l-8.724,-12.815l-10.412,9.529l13.336,1.431c0.289,0.031 0.575,0.093 0.851,0.186l4.949,1.669Z" fill="white"/></svg>